<svg width="40" height="40" viewBox="0 0 40 40" fill="none" xmlns="http://www.w3.org/2000/svg">
<path d="M3.5791 12.5812C4.87363 10.2649 7.80082 9.4365 10.1172 10.731C10.8932 11.1647 11.5337 11.8052 11.9674 12.5812H3.5791Z" fill="#00CEB8"/>
<path d="M28.0322 37.0306C29.3264 34.7141 32.2535 33.8852 34.57 35.1794C35.3466 35.6132 35.9875 36.2541 36.4213 37.0306H28.0322Z" fill="#00CEB8"/>
<path d="M10.2828 7.56742C12.1423 6.18156 12.5263 3.55062 11.1404 1.69109C9.75445 -0.168441 7.12359 -0.552426 5.26406 0.833512C3.40453 2.21945 3.02055 4.85031 4.40648 6.70984C4.64937 7.0357 4.9382 7.32461 5.26406 7.56742C2.27188 8.59086 0 11.2369 0 15.5502H15.5469C15.5469 11.2979 13.3313 8.61039 10.2828 7.56742ZM4.82422 4.20257C4.82422 2.57375 6.14461 1.25336 7.77344 1.25336C9.40227 1.25336 10.7227 2.57375 10.7227 4.20257C10.7227 5.8314 9.40227 7.15179 7.77344 7.15179C6.14531 7.15007 4.82594 5.8307 4.82422 4.20257ZM1.27969 14.3002C1.62305 10.7138 4.80867 8.08476 8.39508 8.42812C11.5065 8.72593 13.9693 11.1888 14.2672 14.3002H1.27969Z" fill="#48626F"/>
<path d="M34.7359 32.0166C36.5955 30.6308 36.9795 27.9998 35.5935 26.1403C34.2077 24.2808 31.5767 23.8968 29.7172 25.2827C27.8577 26.6687 27.4737 29.2995 28.8596 31.1591C29.1025 31.4849 29.3913 31.7738 29.7172 32.0166C26.725 33.0401 24.4531 35.6885 24.4531 39.9994H40C40 35.7471 37.7844 33.0588 34.7359 32.0166ZM29.2773 28.6518C29.2773 27.023 30.5977 25.7026 32.2266 25.7026C33.8554 25.7026 35.1758 27.023 35.1758 28.6518C35.1758 30.2806 33.8554 31.601 32.2266 31.601C30.5984 31.5993 29.2791 30.2799 29.2773 28.6518ZM25.7328 38.7494C26.0762 35.163 29.2618 32.5341 32.8482 32.8773C35.9595 33.1752 38.4224 35.638 38.7203 38.7494H25.7328Z" fill="#48626F"/>
<path d="M8.39844 18.0498H7.14844V34.9248H21.9531V33.6748H8.39844V18.0498Z" fill="#48626F"/>
<path d="M31.6016 21.9561H32.8516V5.08105H18.0469V6.33105H31.6016V21.9561Z" fill="#48626F"/>
</svg>
