<svg width="40" height="40" viewBox="0 0 40 40" fill="none" xmlns="http://www.w3.org/2000/svg">
<path d="M23.0016 40H17L15.4695 35.0195C13.1534 34.318 11.0305 33.0912 9.26641 31.4344L4.18047 32.5984L1.17969 27.4016L4.72656 23.5844C4.17789 21.2266 4.17789 18.7742 4.72656 16.4164L1.17969 12.5992L4.18047 7.40156L9.26484 8.56563C11.0294 6.90867 13.1528 5.68172 15.4695 4.98047L17 0H23.0016L24.532 4.98047C26.8482 5.68195 28.9711 6.90883 30.7352 8.56563L35.8195 7.40156L38.8203 12.5992L35.2734 16.4164C35.8221 18.7742 35.8221 21.2266 35.2734 23.5844L38.8203 27.4016L35.8211 32.5984L30.7367 31.4344C28.9722 33.0913 26.8488 34.3183 24.532 35.0195L23.0016 40ZM17.9234 38.75H22.0781L23.5391 34.0023C26.0508 33.3055 28.0781 32.2969 30.3539 30.0648L35.1977 31.1742L37.2773 27.5781L33.8969 23.9375C34.1719 22.8695 34.4359 21.6812 34.4359 20C34.4359 18.4375 34.2117 17.2875 33.8969 16.0625L37.2773 12.4219L35.2 8.82812L30.3562 9.9375C28.4578 8.075 26.5609 6.8375 23.5414 6L22.0781 1.25H17.9234L16.4625 5.99766C13.9508 6.69453 11.9234 7.70312 9.64766 9.93516L4.80391 8.82578L2.72422 12.4219L6.10469 16.0625C5.82969 17.1305 5.56563 18.3188 5.56563 20C5.56563 21.5625 5.78984 22.7125 6.10469 23.9375L2.72422 27.5781L4.80156 31.1719L9.64531 30.0625C11.5437 31.925 13.4406 33.1625 16.4602 34L17.9234 38.75ZM20.0008 28.1555C15.4966 28.1555 11.8453 24.5041 11.8453 20C11.8453 15.4959 15.4966 11.8445 20.0008 11.8445C24.5049 11.8445 28.1562 15.4959 28.1562 20C28.1511 24.502 24.5028 28.1503 20.0008 28.1555ZM20.0008 13.0945C16.187 13.0945 13.0953 16.1863 13.0953 20C13.0953 23.8137 16.187 26.9055 20.0008 26.9055C23.8145 26.9055 26.9062 23.8137 26.9062 20C26.902 16.188 23.8128 13.0988 20.0008 13.0945Z" fill="#48626F"/>
<path d="M19.1932 37.0312L17.8291 32.5977C13.7854 31.4758 12.776 30.7227 10.1814 28.1789L5.65566 29.2188L4.84473 27.8125L8.0002 24.4164C7.63223 22.9844 7.28145 21.8477 7.28145 19.9969C7.28145 18.1461 7.6377 16.9891 8.0002 15.5773L4.84473 12.1875L5.65566 10.7812L10.1814 11.8172C13.2096 8.84844 14.3744 8.35703 17.8291 7.39844L19.1932 2.96875H20.8096L22.1729 7.40234C26.2166 8.52422 27.226 9.27734 29.8205 11.8211L34.3463 10.7812L35.1572 12.1875L32.0018 15.5836C32.3697 17.0156 32.7205 18.1523 32.7205 20.0031C32.7205 21.8539 32.3643 23.0109 32.0018 24.4227L35.1572 27.8125L34.3463 29.2188L29.8213 28.1789C26.7932 31.1477 25.6283 31.6391 22.1736 32.5977L20.8088 37.0312H19.1932ZM20.001 10.1258C14.5476 10.1258 10.1268 14.5466 10.1268 20C10.1268 25.4534 14.5476 29.8742 20.001 29.8742C25.4543 29.8742 29.8752 25.4534 29.8752 20C29.8692 14.5491 25.4518 10.1318 20.001 10.1258Z" fill="#FF9933"/>
</svg>
