<svg width="23" height="40" viewBox="0 0 23 40" fill="none" xmlns="http://www.w3.org/2000/svg">
<g clip-path="url(#clip0)">
<path fill-rule="evenodd" clip-rule="evenodd" d="M2.89771 36.9441H19.7317V2.99756H2.89771V36.9441ZM11.3147 33.8298C9.95847 33.8298 8.85913 32.6969 8.85913 31.2994C8.85913 29.9019 9.95847 28.7689 11.3147 28.7689C12.6708 28.7689 13.7702 29.9019 13.7702 31.2994C13.7702 32.6969 12.6708 33.8298 11.3147 33.8298Z" fill="#FFD233"/>
<path fill-rule="evenodd" clip-rule="evenodd" d="M0.0266113 39.903H22.6025V0.0390625H0.0266113V39.903ZM1.23522 38.6572H21.3936V1.2849H1.23522V38.6572Z" fill="#48626F"/>
<path fill-rule="evenodd" clip-rule="evenodd" d="M8.25439 31.2991C8.25439 33.0407 9.62459 34.4527 11.3147 34.4527C13.0047 34.4527 14.3745 33.0407 14.3745 31.2991C14.3745 29.5576 13.0047 28.146 11.3147 28.146C9.62535 28.1482 8.25666 29.5586 8.25439 31.2991ZM13.1655 31.2991C13.1655 32.3525 12.3369 33.2068 11.3147 33.2068C10.2924 33.2068 9.46338 32.3525 9.46338 31.2991C9.46338 30.2457 10.2924 29.3918 11.3147 29.3918C12.3366 29.3929 13.1645 30.246 13.1655 31.2991Z" fill="#48626F"/>
<path fill-rule="evenodd" clip-rule="evenodd" d="M6.38843 6.34594H13.2943V5.1001H6.38843V6.34594Z" fill="#48626F"/>
<path fill-rule="evenodd" clip-rule="evenodd" d="M14.5784 6.5794H16.2408V4.8667H14.5784V6.5794Z" fill="#48626F"/>
</g>
<defs>
<clipPath id="clip0">
<rect width="22.6667" height="40" fill="white"/>
</clipPath>
</defs>
</svg>
