<?xml version="1.0" encoding="UTF-8"?>
<svg width="30px" height="30px" viewBox="0 0 30 30" version="1.1" xmlns="http://www.w3.org/2000/svg" xmlns:xlink="http://www.w3.org/1999/xlink">
    <!-- Generator: Sketch 53.2 (72643) - https://sketchapp.com -->
    <title>ic_collaborations</title>
    <desc>Created with Sketch.</desc>
    <g id="01" stroke="none" stroke-width="1" fill="none" fill-rule="evenodd">
        <g id="01-01-18-Homepage-LeftAligned" transform="translate(-480.000000, -5029.000000)" fill-rule="nonzero">
            <g id="Group-36" transform="translate(0.000000, 2074.000000)">
                <g id="Group-28" transform="translate(0.000000, 1330.000000)">
                    <g id="Group-35">
                        <g id="Group-22" transform="translate(450.000000, 1083.000000)">
                            <g id="Group-33" transform="translate(0.000000, 210.000000)">
                                <g id="Group-27-Copy-2" transform="translate(0.000000, 298.000000)">
                                    <g id="ic_collaborations" transform="translate(30.000000, 34.000000)">
                                        <g id="Group" transform="translate(2.636719, 7.558594)" fill="#00CEB8">
                                            <path d="M0.0482226563,1.87623047 C1.01876953,0.138925781 3.21398437,-0.482695313 4.95128906,0.487851562 C5.53365234,0.813222656 6.01429688,1.29380859 6.33966797,1.87623047 L0.0482226563,1.87623047 Z" id="Path"></path>
                                            <path d="M18.3869531,1.87623047 C19.3575,0.138925781 21.5527148,-0.482695313 23.2900195,0.487851562 C23.8723828,0.813222656 24.3530273,1.29380859 24.6783984,1.87623047 L18.3869531,1.87623047 Z" id="Path"></path>
                                            <path d="M9.21755859,20.2150195 C10.1881055,18.4777148 12.3833203,17.8560937 14.120625,18.8266406 C14.7029883,19.1520117 15.1836328,19.6325977 15.5090039,20.2150195 L9.21755859,20.2150195 L9.21755859,20.2150195 Z" id="Path"></path>
                                        </g>
                                        <g id="Group" fill="#48626F">
                                            <path d="M7.71257812,5.67451172 C9.10716797,4.63517578 9.39509766,2.66208984 8.35570312,1.2675 C7.31630859,-0.127089844 5.34328125,-0.414960938 3.94869141,0.624375 C2.55410156,1.66371094 2.26623047,3.63679687 3.30556641,5.03132812 C3.48773438,5.27572266 3.70435547,5.49240234 3.94869141,5.67445312 C1.70472656,6.44203125 0.00087890625,8.42648438 0.00087890625,11.6612695 L11.660332,11.6612695 C11.6603906,8.4721875 9.99873047,6.45667969 7.71257812,5.67451172 Z M3.61886719,3.15099609 C3.61886719,1.92943359 4.60910156,0.939199219 5.83066406,0.939199219 C7.05222656,0.939199219 8.04246094,1.92943359 8.04246094,3.15099609 C8.04246094,4.37255859 7.05222656,5.36279297 5.83066406,5.36279297 C4.6096875,5.36150391 3.62015625,4.37203125 3.61886719,3.15099609 Z M0.960585937,10.7238281 C1.21810547,8.03419922 3.60714844,6.06251953 6.29683594,6.31998047 C8.63027344,6.54333984 10.4772656,8.39039063 10.7006836,10.7238281 L0.960585937,10.7238281 Z" id="Shape"></path>
                                            <path d="M26.0513086,5.67451172 C27.4458984,4.63517578 27.7338281,2.66208984 26.6944336,1.2675 C25.6550391,-0.127089844 23.6820117,-0.415019531 22.2874219,0.624375 C20.892832,1.66376953 20.6049023,3.63679687 21.6442969,5.03138672 C21.8264648,5.27578125 22.0430859,5.49246094 22.2874219,5.67451172 C20.0433984,6.44203125 18.3396094,8.42648438 18.3396094,11.6612695 L29.9990625,11.6612695 C29.9991211,8.4721875 28.3375195,6.45667969 26.0513086,5.67451172 Z M21.9575977,3.15099609 C21.9575977,1.92943359 22.947832,0.939199219 24.1693945,0.939199219 C25.390957,0.939199219 26.3811914,1.92943359 26.3811914,3.15099609 C26.3811914,4.37255859 25.390957,5.36279297 24.1693945,5.36279297 C22.948418,5.36150391 21.9588867,4.37203125 21.9575977,3.15099609 Z M19.299375,10.7238281 C19.5568945,8.03419922 21.9459375,6.06257813 24.635625,6.31998047 C26.9690039,6.54339844 28.8160547,8.39039063 29.0394727,10.7238281 L19.299375,10.7238281 Z" id="Shape"></path>
                                            <path d="M16.8819141,24.0132422 C18.2765039,22.9739062 18.5644336,21.0008203 17.5250391,19.6062305 C16.4857031,18.2116406 14.5126172,17.9237109 13.1180273,18.9631055 C11.7234375,20.0025 11.4355078,21.9755273 12.4749023,23.3701172 C12.6570703,23.6145117 12.8736914,23.8311914 13.1180273,24.0132422 C10.8740039,24.7807617 9.17021484,26.7669727 9.17021484,30 L20.829668,30 C20.8297266,26.8109766 19.168125,24.7955273 16.8819141,24.0132422 Z M12.7882031,21.4897852 C12.7882031,20.2682227 13.7784375,19.2779883 15,19.2779883 C16.2215625,19.2779883 17.2117969,20.2682227 17.2117969,21.4897852 C17.2117969,22.7113477 16.2215625,23.701582 15,23.701582 L15,23.701582 C13.7790234,23.700293 12.7894922,22.7108203 12.7882031,21.4897852 Z M10.1299805,29.0625586 C10.3875,26.3729297 12.776543,24.4013086 15.4662305,24.6587109 C17.7996094,24.8821289 19.6466602,26.7291211 19.8700781,29.0625586 L10.1299805,29.0625586 Z" id="Shape"></path>
                                            <polygon id="Path" points="5.12753906 14.1220312 4.19009766 14.1220312 4.19009766 28.0958203 7.05808594 28.0958203 7.05808594 27.1583789 5.12753906 27.1583789"></polygon>
                                            <polygon id="Path" points="24.8724609 27.1583789 22.9419141 27.1583789 22.9419141 28.0958203 25.8099023 28.0958203 25.8099023 14.1220312 24.8724609 14.1220312"></polygon>
                                            <rect id="Rectangle" x="11.1913477" y="3.81017578" width="7.61671875" height="1"></rect>
                                        </g>
                                    </g>
                                </g>
                            </g>
                        </g>
                    </g>
                </g>
            </g>
        </g>
    </g>
</svg>