<?xml version="1.0" encoding="UTF-8"?>
<svg width="30px" height="30px" viewBox="0 0 30 30" version="1.1" xmlns="http://www.w3.org/2000/svg" xmlns:xlink="http://www.w3.org/1999/xlink">
    <!-- Generator: Sketch 53.2 (72643) - https://sketchapp.com -->
    <title>ic_satisfaction</title>
    <desc>Created with Sketch.</desc>
    <g id="01" stroke="none" stroke-width="1" fill="none" fill-rule="evenodd">
        <g id="01-01-18-Homepage-LeftAligned" transform="translate(-758.000000, -5025.000000)" fill-rule="nonzero">
            <g id="Group-36" transform="translate(0.000000, 2074.000000)">
                <g id="Group-28" transform="translate(0.000000, 1330.000000)">
                    <g id="Group-35">
                        <g id="Group-22" transform="translate(450.000000, 1083.000000)">
                            <g id="Group-33" transform="translate(0.000000, 210.000000)">
                                <g id="Group-27-Copy-3" transform="translate(278.000000, 298.000000)">
                                    <g id="ic_satisfaction" transform="translate(30.000000, 30.000000)">
                                        <path d="M13.9154297,30 C6.22441406,30 0,23.7761719 0,16.0845703 C0,8.91914063 5.52304688,2.16796875 14.3841797,2.16796875 L14.3841797,9.8296875 C9.96972656,9.8296875 7.66054688,12.9867187 7.66054688,16.0845703 C7.66476563,19.537207 10.462793,22.335 13.9154297,22.3388672 C16.9845703,22.3388672 20.1703125,20.0677734 20.1703125,15.6152344 L27.8320312,15.6152344 C27.8320312,24.4236328 21.1242187,30 13.9154297,30 Z M13.4466797,3.11484375 C6.49863281,3.35976563 0.9375,9.06152344 0.9375,16.0845703 C0.933632813,23.2481836 6.73775391,29.0586328 13.9013672,29.0625 C13.9060547,29.0625 13.9107422,29.0625 13.9154297,29.0625 C20.9261719,29.0625 26.6396484,23.5136719 26.8851563,16.5533203 L21.09375,16.5533203 C20.8341211,20.5170703 17.4104297,23.5198828 13.4466797,23.2602539 C9.48292969,23.000625 6.48011719,19.5769336 6.73974609,15.6131836 C6.97564453,12.0113086 9.84480469,9.14214844 13.4466797,8.90625 L13.4466797,3.11484375 Z" id="Shape" fill="#48626F"></path>
                                        <path d="M13.9154297,27.7734375 C7.47011719,27.7734375 2.2265625,22.5298828 2.2265625,16.0845703 C2.2265625,10.2972656 6.47285156,5.38652344 12.1576172,4.52753906 L12.1576172,7.78652344 C8.29335938,8.60683594 5.43398438,12.0410156 5.43398438,16.0845703 C5.43398438,20.7609375 9.23847656,24.5660156 13.9154297,24.5660156 C17.9666016,24.5660156 21.3960937,21.6990234 22.2134766,17.8423828 L25.4724609,17.8423828 C24.6134766,23.5271484 19.7027344,27.7734375 13.9154297,27.7734375 Z" id="Path" fill="#00CEB8"></path>
                                        <path d="M30,14.3841797 L22.3388672,14.3841797 C22.3388672,10.6259766 19.9980469,7.66054688 15.6152344,7.66054688 L15.6152344,0 C24.2144531,0 30,6.30117187 30,14.3841797 Z M23.2617188,13.4466797 L29.0542969,13.4466797 C28.8146484,6.65859375 23.3630859,1.1859375 16.5533203,0.945703125 L16.5533203,6.73828125 C20.1541406,6.97833984 23.0216602,9.84585937 23.2617188,13.4466797 Z" id="Shape" fill="#48626F"></path>
                                    </g>
                                </g>
                            </g>
                        </g>
                    </g>
                </g>
            </g>
        </g>
    </g>
</svg>