<?xml version="1.0" encoding="UTF-8"?>
<svg width="30px" height="29px" viewBox="0 0 30 29" version="1.1" xmlns="http://www.w3.org/2000/svg" xmlns:xlink="http://www.w3.org/1999/xlink">
    <!-- Generator: Sketch 53.2 (72643) - https://sketchapp.com -->
    <title>ic_automation</title>
    <desc>Created with Sketch.</desc>
    <g id="01" stroke="none" stroke-width="1" fill="none" fill-rule="evenodd">
        <g id="01-01-17-Homepage-Centered" transform="translate(-758.000000, -4876.000000)" fill-rule="nonzero">
            <g id="Group-36" transform="translate(0.000000, 2219.000000)">
                <g id="Group-28" transform="translate(0.000000, 1330.000000)">
                    <g id="Group-35">
                        <g id="Group-65" transform="translate(450.000000, 1213.000000)">
                            <g id="Group-48">
                                <g id="Group-33" transform="translate(0.000000, 80.000000)">
                                    <g id="Group-27-Copy" transform="translate(278.000000, 0.000000)">
                                        <g id="ic_automation" transform="translate(30.000000, 34.000000)">
                                            <g id="Group" transform="translate(5.742188, 2.252988)" fill="#00CEB8">
                                                <path d="M2.12050781,4.19662351 C0.951328125,4.19662351 0.003515625,3.26215339 0.003515625,2.10943227 C0.003515625,0.956711155 0.951328125,0.0222410359 2.12050781,0.0222410359 C3.2896875,0.0222410359 4.2375,0.956711155 4.2375,2.10943227 C4.23621094,3.26163347 3.28916016,4.19535259 2.12050781,4.19662351 Z" id="Path"></path>
                                                <path d="M9.2578125,24.4712052 C8.08863281,24.4712052 7.14082031,23.5367351 7.14082031,22.3840139 C7.14082031,21.2312928 8.08863281,20.2968227 9.2578125,20.2968227 C10.4269922,20.2968227 11.3748047,21.2312928 11.3748047,22.3840139 C11.3735156,23.5362151 10.4264648,24.4699343 9.2578125,24.4712052 Z" id="Path"></path>
                                            </g>
                                            <g id="Group" fill="#48626F">
                                                <path d="M12.2513672,3.885249 C11.9838281,1.49575299 9.80214844,-0.227494024 7.37853516,0.0362788845 C5.32371094,0.259960159 3.70142578,1.8593506 3.47460938,3.885249 L0,3.885249 L0,4.83901394 L3.47460938,4.83901394 C3.74214844,7.22850996 5.92382812,8.95175697 8.34744141,8.68798406 C10.4022656,8.46436056 12.0244922,6.86491235 12.2513672,4.83901394 L30,4.83901394 L30,3.885249 L12.2513672,3.885249 Z M7.86328125,7.76154382 C5.95921875,7.76281474 4.41457031,6.24199004 4.41328125,4.36473108 C4.41199219,2.48747211 5.95453125,0.964567729 7.85859375,0.963296813 C9.76265625,0.962025896 11.3073047,2.4828506 11.3085937,4.36010956 C11.3085937,4.36086056 11.3085937,4.36166932 11.3085937,4.36242032 C11.3060156,6.23788845 9.76494141,7.75778884 7.86269531,7.76096614 L7.86328125,7.76154382 Z" id="Shape"></path>
                                                <path d="M30,14.0225398 L26.5253906,14.0225398 C26.2578516,11.6330438 24.0761719,9.90979681 21.6525586,10.1735697 C19.5977344,10.3971932 17.9755078,11.9966414 17.7486328,14.0225398 L0,14.0225398 L0,14.9768825 L17.7486328,14.9768825 C18.0161719,17.3663785 20.1978516,19.0896255 22.6214648,18.8258526 C24.6762891,18.6022291 26.2985742,17.0027809 26.5253906,14.9768825 L30,14.9768825 L30,14.0225398 Z M22.1373047,17.8988347 C20.2332422,17.8988347 18.6896484,16.3769701 18.6896484,14.4997112 C18.6896484,12.6224522 20.2332422,11.1005876 22.1373047,11.1005876 C24.0413672,11.1005876 25.5849609,12.6224522 25.5849609,14.4997112 L25.5849609,14.4997112 C25.5826758,16.3760458 24.0404297,17.8965817 22.1373047,17.8988347 Z" id="Shape"></path>
                                                <path d="M15,20.2841135 C12.75,20.2872331 10.8611719,21.9557151 10.6119141,24.1604084 L0,24.1604084 L0,25.114751 L10.6119141,25.114751 C10.8794531,27.504247 13.0611328,29.227494 15.4847461,28.9637211 C17.5395703,28.7400976 19.1617969,27.1406494 19.3886719,25.114751 L30,25.114751 L30,24.1604084 L19.3880859,24.1604084 C19.1388281,21.9557151 17.25,20.2872331 15,20.2841135 Z M15,28.0361255 C13.0959375,28.0361255 11.5523438,26.514261 11.5523438,24.637002 C11.5523438,22.759743 13.0959375,21.2378785 15,21.2378785 C16.9040625,21.2378785 18.4476563,22.759743 18.4476563,24.637002 L18.4476563,24.637002 C18.4453711,26.5133367 16.903125,28.0338725 15,28.0361255 Z" id="Shape"></path>
                                            </g>
                                        </g>
                                    </g>
                                </g>
                            </g>
                        </g>
                    </g>
                </g>
            </g>
        </g>
    </g>
</svg>