<?xml version="1.0" encoding="UTF-8"?>
<svg width="30px" height="30px" viewBox="0 0 30 30" version="1.1" xmlns="http://www.w3.org/2000/svg" xmlns:xlink="http://www.w3.org/1999/xlink">
    <!-- Generator: Sketch 53.2 (72643) - https://sketchapp.com -->
    <title>ic_time</title>
    <desc>Created with Sketch.</desc>
    <g id="01" stroke="none" stroke-width="1" fill="none" fill-rule="evenodd">
        <g id="01-01-17-Homepage-Centered" transform="translate(-480.000000, -4876.000000)" fill-rule="nonzero">
            <g id="Group-36" transform="translate(0.000000, 2219.000000)">
                <g id="Group-28" transform="translate(0.000000, 1330.000000)">
                    <g id="Group-35">
                        <g id="Group-65" transform="translate(450.000000, 1213.000000)">
                            <g id="Group-48">
                                <g id="Group-33" transform="translate(0.000000, 80.000000)">
                                    <g id="Group-27">
                                        <g id="ic_time" transform="translate(30.000000, 34.000000)">
                                            <path d="M15,27.7734375 C7.94542969,27.7734375 2.2265625,22.0545703 2.2265625,15 C2.2265625,7.94542969 7.94542969,2.2265625 15,2.2265625 C22.0545703,2.2265625 27.7734375,7.94542969 27.7734375,15 C27.7773047,22.0507031 22.0647656,27.7695703 15.0140625,27.7734375 C15.009375,27.7734375 15.0046875,27.7734375 15,27.7734375 Z M15,12.8027344 C13.7864648,12.8027344 12.8027344,13.7864648 12.8027344,15 C12.8027344,16.2135352 13.7864648,17.1972656 15,17.1972656 C16.2135352,17.1972656 17.1972656,16.2135352 17.1972656,15 L17.1972656,15 C17.1959766,13.7869922 16.2130078,12.8040234 15,12.8027344 Z" id="Shape" fill="#00CEB8"></path>
                                            <g id="Group" fill="#48626F">
                                                <path d="M15,0 C6.70957031,0 0,6.70898438 0,15 C0,23.2910156 6.70898438,30 15,30 C23.2910156,30 30,23.2910156 30,15 C30,6.70898438 23.2910156,0 15,0 Z M15,29.0625 C7.22753906,29.0625 0.9375,22.7730469 0.9375,15 C0.9375,7.22695312 7.22695313,0.9375 15,0.9375 C22.7730469,0.9375 29.0625,7.22695313 29.0625,15 C29.0625,22.7730469 22.7730469,29.0625 15,29.0625 Z" id="Shape"></path>
                                                <path d="M15.46875,12.6738281 L15.46875,4.27734375 L14.53125,4.27734375 L14.53125,12.6738281 C13.2472266,12.931582 12.4152539,14.1813867 12.6730078,15.4654102 C12.7337695,15.7681641 12.8530664,16.0560937 13.0242187,16.3130859 L9.57246094,19.7648437 L10.2351562,20.4275391 L13.6869141,16.9757812 C14.778457,17.7005859 16.250918,17.4033398 16.9757227,16.3117969 C17.7005273,15.2202539 17.4032812,13.747793 16.3117383,13.0229883 C16.0559766,12.853125 15.7696875,12.7345898 15.46875,12.6738281 Z M15,16.4355469 C14.207168,16.4355469 13.5644531,15.792832 13.5644531,15 C13.5644531,14.207168 14.207168,13.5644531 15,13.5644531 C15.792832,13.5644531 16.4355469,14.207168 16.4355469,15 L16.4355469,15 C16.4345508,15.7924219 15.7924219,16.4345508 15,16.4355469 Z" id="Shape"></path>
                                            </g>
                                        </g>
                                    </g>
                                </g>
                            </g>
                        </g>
                    </g>
                </g>
            </g>
        </g>
    </g>
</svg>