<?xml version="1.0" encoding="UTF-8"?>
<svg width="30px" height="30px" viewBox="0 0 30 30" version="1.1" xmlns="http://www.w3.org/2000/svg" xmlns:xlink="http://www.w3.org/1999/xlink">
    <!-- Generator: Sketch 53.2 (72643) - https://sketchapp.com -->
    <title>ic_visitors</title>
    <desc>Created with Sketch.</desc>
    <g id="01" stroke="none" stroke-width="1" fill="none" fill-rule="evenodd">
        <g id="01-01-17-Homepage-Centered" transform="translate(-480.000000, -5174.000000)" fill-rule="nonzero">
            <g id="Group-36" transform="translate(0.000000, 2219.000000)">
                <g id="Group-28" transform="translate(0.000000, 1330.000000)">
                    <g id="Group-35">
                        <g id="Group-65" transform="translate(450.000000, 1213.000000)">
                            <g id="Group-48">
                                <g id="Group-33" transform="translate(0.000000, 80.000000)">
                                    <g id="Group-27-Copy-2" transform="translate(0.000000, 298.000000)">
                                        <g id="ic_visitors" transform="translate(30.000000, 34.000000)">
                                            <g id="Group" transform="translate(2.519531, 24.502924)" fill="#00CEB8">
                                                <path d="M15.7345312,3.21660819 C16.7053125,0.682807018 19.550332,-0.585906433 22.089082,0.382923977 C23.3960742,0.881695906 24.4285547,1.91216374 24.9283008,3.21660819 L15.7345312,3.21660819 Z" id="Path"></path>
                                                <path d="M0.0326953125,3.21660819 C1.00347656,0.682807018 3.84849609,-0.585906433 6.38724609,0.382923977 C7.69423828,0.881695906 8.72671875,1.91216374 9.22646484,3.21660819 L0.0326953125,3.21660819 Z" id="Path"></path>
                                            </g>
                                            <g id="Group" fill="#48626F">
                                                <path d="M24.9390234,22.6509357 C26.697832,21.4998246 27.1886133,19.1436257 26.0351953,17.3881871 C24.8818359,15.632807 22.5210352,15.1429825 20.762168,16.294152 C19.0033008,17.4452632 18.5125781,19.801462 19.6659961,21.5569006 C19.9524023,21.9926901 20.3254687,22.3651462 20.762168,22.6509357 C17.9223633,23.5181287 15.7030078,26.0190643 15.7030078,29.9415789 L29.9987109,29.9415789 C29.9987695,26.0681871 27.8251172,23.5321053 24.9390234,22.6509357 Z M19.9800586,19.4745614 C19.9800586,17.8921053 21.2653711,16.6092982 22.850918,16.6092982 C24.4364648,16.6092982 25.7217773,17.8921053 25.7217773,19.4745614 C25.7217773,21.0570175 24.4364648,22.3398246 22.850918,22.3398246 C21.2661914,22.3378947 19.9819922,21.0561988 19.9800586,19.4745614 Z M16.6580859,29.0059649 C16.915957,25.5924561 19.8976172,23.0338012 23.3178516,23.2911696 C26.3794922,23.5215789 28.8129492,25.9502339 29.0438086,29.0059649 L16.6580859,29.0059649 Z" id="Shape"></path>
                                                <path d="M9.2371875,22.6509357 C10.9959961,21.4998246 11.4867773,19.1436257 10.3333594,17.3881871 C9.18,15.632807 6.81919922,15.1429825 5.06033203,16.294152 C3.30146484,17.4453216 2.81074219,19.801462 3.96416016,21.5569006 C4.25056641,21.9926901 4.62363281,22.3651462 5.06033203,22.6509357 C2.22058594,23.5180702 0.00123046875,26.0190643 0.00123046875,29.9415205 L14.2969336,29.9415205 C14.2969336,26.0681871 12.1232812,23.5321053 9.2371875,22.6509357 Z M4.27822266,19.4745614 C4.27822266,17.8921053 5.56353516,16.6092982 7.14908203,16.6092982 C8.73462891,16.6092982 10.0199414,17.8921053 10.0199414,19.4745614 C10.0199414,21.0570175 8.73462891,22.3398246 7.14908203,22.3398246 C5.56435547,22.3378947 4.28015625,21.0561988 4.27822266,19.4745614 Z M0.95625,29.0059649 C1.21412109,25.5924561 4.19578125,23.0338012 7.61601563,23.2911696 C10.6776563,23.5215789 13.1111133,25.9502339 13.3419727,29.0059649 L0.95625,29.0059649 Z" id="Shape"></path>
                                                <path d="M17.0881055,6.9797076 C18.8469141,5.82859649 19.3376953,3.47239766 18.1842773,1.71695906 C17.030918,-0.0384210526 14.6701172,-0.528245614 12.91125,0.622923977 C11.1523828,1.77409357 10.6616602,4.13023392 11.8150781,5.88567251 C12.1014844,6.32146199 12.4745508,6.69391813 12.91125,6.9797076 C10.0714453,7.84690058 7.85208984,10.3478363 7.85208984,14.2703509 L22.147793,14.2703509 C22.1478516,10.3969591 19.9741992,7.86087719 17.0881055,6.9797076 Z M12.1291406,3.80333333 C12.1291406,2.22087719 13.4144531,0.938070175 15,0.938070175 C16.5855469,0.938070175 17.8708594,2.22087719 17.8708594,3.80333333 C17.8708594,5.38578947 16.5855469,6.66859649 15,6.66859649 C13.4152734,6.66666667 12.1310742,5.38497076 12.1291406,3.80333333 Z M8.80716797,13.3347368 C9.06503906,9.92122807 12.0466992,7.3625731 15.4669336,7.61994152 C18.5285742,7.85035088 20.9620312,10.2790058 21.1928906,13.3347368 L8.80716797,13.3347368 Z" id="Shape"></path>
                                            </g>
                                            <path d="M10.4031445,12.0483041 C11.3739258,9.51450292 14.2189453,8.24578947 16.7576953,9.21461988 C18.0646875,9.71339181 19.097168,10.7438596 19.5969141,12.0483041 L10.4031445,12.0483041 L10.4031445,12.0483041 Z" id="Path" fill="#00CEB8"></path>
                                        </g>
                                    </g>
                                </g>
                            </g>
                        </g>
                    </g>
                </g>
            </g>
        </g>
    </g>
</svg>