<?xml version="1.0" encoding="UTF-8"?>
<svg width="60px" height="60px" viewBox="0 0 60 60" version="1.1" xmlns="http://www.w3.org/2000/svg" xmlns:xlink="http://www.w3.org/1999/xlink">
    <!-- Generator: Sketch 53.2 (72643) - https://sketchapp.com -->
    <title>ic_attendees</title>
    <desc>Created with Sketch.</desc>
    <g id="01---Desktop" stroke="none" stroke-width="1" fill="none" fill-rule="evenodd">
        <g id="01-02-03-About" transform="translate(-689.000000, -1569.000000)" fill-rule="nonzero">
            <g id="We-are-on-a-mission" transform="translate(0.000000, 486.000000)">
                <g id="Group-10" transform="translate(352.000000, 808.000000)">
                    <g id="Attendees" transform="translate(313.000000, 275.000000)">
                        <g id="ic_attendees" transform="translate(24.000000, 0.000000)">
                            <path d="M4.6875,55.546875 C5.78789063,47.4726563 10.5984375,40.8738281 16.9476563,37.0875 L30,50.1363281 L43.0476563,37.0875 C49.3359375,40.8363281 54.1992188,47.4011719 55.3125,55.546875 L4.6875,55.546875 Z" id="Path" fill="#00CEB8"></path>
                            <path d="M36.103125,29.68125 C41.7812109,27.2368359 45.4623047,21.650625 45.46875,15.46875 C45.46875,6.93867187 38.5300781,0 30,0 C21.4699219,0 14.53125,6.93867187 14.53125,15.46875 C14.5376953,21.650625 18.2187891,27.2368359 23.896875,29.68125 C10.8222656,32.3695313 0,43.7039063 0,60 L60,60 C60,43.8515625 49.321875,32.4 36.103125,29.68125 Z M29.0625,42.9011719 L19.2269531,33.065625 C22.3514063,31.7751563 25.6836328,31.0605469 29.0625,30.95625 L29.0625,42.9011719 Z M30.9375,30.9550781 C34.3160156,31.0594922 37.6477734,31.7741016 40.771875,33.0644531 L30.9375,42.9011719 L30.9375,30.9550781 Z M16.40625,15.46875 C16.40625,7.96113281 22.4923828,1.875 30,1.875 C37.5076172,1.875 43.59375,7.96113281 43.59375,15.46875 C43.59375,22.9763672 37.5076172,29.0625 30,29.0625 C22.4958984,29.0540625 16.4146875,22.9728516 16.40625,15.46875 Z M1.89023437,58.125 C2.24179687,47.4140625 8.5453125,38.34375 17.4082031,33.8988281 L30,46.4894531 L42.5917969,33.8988281 C51.3023437,38.2675781 57.7558594,47.25 58.1097656,58.125 L1.89023437,58.125 Z" id="Shape" fill="#48626F"></path>
                        </g>
                    </g>
                </g>
            </g>
        </g>
    </g>
</svg>