<?xml version="1.0" encoding="UTF-8"?>
<svg width="70px" height="70px" viewBox="0 0 70 70" version="1.1" xmlns="http://www.w3.org/2000/svg" xmlns:xlink="http://www.w3.org/1999/xlink">
    <!-- Generator: Sketch 53.2 (72643) - https://sketchapp.com -->
    <title>ic_countries</title>
    <desc>Created with Sketch.</desc>
    <g id="01" stroke="none" stroke-width="1" fill="none" fill-rule="evenodd">
        <g id="01-03-01-Homepage" transform="translate(-833.000000, -3128.000000)" fill-rule="nonzero">
            <g id="Group-36" transform="translate(0.000000, 2602.000000)">
                <g id="Group-31">
                    <g id="Group-29" transform="translate(201.000000, 120.000000)">
                        <g id="Group-26" transform="translate(0.000000, 406.000000)">
                            <g id="Events-Copy-2" transform="translate(621.000000, 0.000000)">
                                <g id="ic_countries" transform="translate(11.000000, 0.000000)">
                                    <path d="M29.3042969,5.7421875 L29.4765625,6.99042969 L30.6660156,7.72734375 L32.7058594,7.21738281 L35.3691406,5.34296875 L41.4873047,7.55234375 L39.6169922,11.0646484 L39.8439453,12.7640625 L41.2029297,12.8201172 L44.0917969,10.7802734 L45.5642578,11.2902344 L46.5841797,13.3300781 L46.0181641,14.8025391 L42.6753906,18.9382813 L40.9199219,23.6974609 L39.7851562,24.8828125 L38.4261719,21.875 L37.0097656,20.9179688 L33.5535156,20.8619141 L31.0064453,22.3945312 L35.8791016,30.4390625 L43.8087891,30.0425781 L48.1140625,32.7619141 L49.8134766,39.9 L48.4544922,44.9982422 L43.0158203,49.5304688 L42.2228516,53.046875 L39.8439453,57.2386719 L37.5785156,59.0515625 L35,56.5550781 L33.6123047,53.6087891 L32.7058594,46.3626953 L30.3269531,41.9439453 L26.7011719,38.7720703 L26.9335938,35 L29.7664062,31.7419922 L26.8201172,26.1898438 L21.721875,24.4904297 L18.0960937,25.0564453 L17.1841797,20.6445312 L16.6181641,13.6199219 L15.6898437,12.3033203 C3.15123047,22.9680664 1.63201172,41.7781055 12.2967578,54.3167187 C22.9615039,66.855332 41.771543,68.3745508 54.3101562,57.7098047 C60.9698633,52.0454102 64.8066016,43.7427539 64.8046875,35 C64.8046875,16.2695312 47.7626953,2.1875 29.3042969,5.7421875 Z" id="Path" fill="#00CEB8"></path>
                                    <path d="M35,0 C17.2265625,0 0,14.2693359 0,35 C0,54.3443359 15.6542969,70 35,70 C54.3457031,70 70,54.3457031 70,35 C70,15.6542969 54.3457031,0 35,0 Z M28.4634766,7.6453125 L30.4882812,8.89492187 L33.1734375,8.22363281 L35.5318359,6.5625 L39.921875,8.15253906 L38.4863281,10.8609375 L38.8800781,13.8181641 L41.5296875,13.9289062 L44.2640625,11.9984375 L44.7849609,12.1789062 L45.390625,13.3875 L45.0597656,14.2488281 L41.7128906,18.3914062 L40.0722656,22.8525391 L39.3025391,21.153125 L37.3611328,19.8324219 L33.2595703,19.7654297 L29.4998047,22.0212891 L35.2789062,31.5628906 L43.5162109,31.1527344 L47.1515625,33.4496094 L48.6841797,39.8863281 L47.4851562,44.3816406 L42.0287109,48.9289062 L41.1892578,52.6449219 L38.9935547,56.5126953 L37.6427734,57.5927734 L35.9009766,55.9083984 L34.6705078,53.3011719 L33.7695312,46.0195312 L31.1992188,41.2466797 L27.8277344,38.2976563 L28,35.4375 L31.0816406,31.89375 L27.5748047,25.2929687 L21.809375,23.3707031 L18.9519531,23.8177734 L18.2683594,20.4859375 L17.6832031,13.2302734 L14.8025391,9.14238281 C19.1808203,5.70404297 24.3686133,3.44722656 29.8689453,2.58808594 L28.1080078,5.05859375 L28.4634766,7.6453125 Z M35,67.8125 C16.8642578,67.8125 2.1875,53.1371094 2.1875,35 C2.16494141,25.659375 6.146875,16.7570703 13.125,10.5478516 L15.5558594,13.9986328 L16.1027344,20.7921875 L17.2265625,26.2992187 L21.6207031,25.615625 L26.0517578,27.0921875 L28.4375,31.5916016 L25.8535156,34.5638672 L25.5773438,39.2382812 L29.4574219,42.6330078 L31.6449219,46.6976563 L32.5472656,53.9191406 L34.0949219,57.2003906 L37.5128906,60.5007812 L40.6943359,57.9550781 L43.2578125,53.4433594 L44.0042969,50.1347656 L49.4251953,45.6230469 L50.9455078,39.921875 L49.0820312,32.0755859 L44.1068359,28.9310547 L36.4820313,29.3125 L32.5171875,22.7664063 L33.8570313,21.9625 L36.6734375,22.0089844 L37.5648438,22.6146484 L39.4666016,26.8146484 L41.8742188,24.2867188 L43.6515625,19.4851562 L46.9888672,15.3548828 L47.7900391,13.2712891 L46.3476562,10.4029297 L43.9208984,9.5703125 L40.8789062,11.7126953 L40.8091797,11.7126953 L40.7421875,11.2683594 L43.0390625,6.95214844 L35.2050781,4.12070312 L32.24375,6.20019531 L30.8492188,6.54882812 L30.4882812,6.32597656 L30.3912109,5.62324219 L32.7824219,2.26269531 C33.5166016,2.21347656 34.2548828,2.1875 34.9986328,2.1875 C53.134375,2.1875 67.8111328,16.8628906 67.8111328,35 C67.8111328,53.1371094 53.1371094,67.8125 35,67.8125 Z" id="Shape" fill="#48626F"></path>
                                </g>
                            </g>
                        </g>
                    </g>
                </g>
            </g>
        </g>
    </g>
</svg>