<?xml version="1.0" encoding="UTF-8"?>
<svg width="70px" height="36px" viewBox="0 0 70 36" version="1.1" xmlns="http://www.w3.org/2000/svg" xmlns:xlink="http://www.w3.org/1999/xlink">
    <!-- Generator: Sketch 53.2 (72643) - https://sketchapp.com -->
    <title>ic_customers</title>
    <desc>Created with Sketch.</desc>
    <g id="01---Desktop" stroke="none" stroke-width="1" fill="none" fill-rule="evenodd">
        <g id="01-02-03-About" transform="translate(-684.000000, -1311.000000)" fill-rule="nonzero">
            <g id="We-are-on-a-mission" transform="translate(0.000000, 486.000000)">
                <g id="Group-10" transform="translate(352.000000, 808.000000)">
                    <g id="Customers" transform="translate(312.000000, 17.000000)">
                        <g id="ic_customers" transform="translate(20.000000, 0.000000)">
                            <path d="M26.25,30.8181818 L26.25,29.5909091 C26.25,27.3315 28.0862695,25.5 30.3515625,25.5 L30.3515625,25.5 L39.6484375,25.5 C41.9137305,25.5 43.75,27.3315 43.75,29.5909091 L43.75,29.5909091 L43.75,30.8181818 L26.25,30.8181818 Z" id="Path" fill="#00CEB8"></path>
                            <g id="Group" fill="#48626F">
                                <path d="M35,18.5454545 C40.1344727,18.5454545 44.296875,14.3938636 44.296875,9.27272727 C44.296875,4.15159091 40.1344727,0 35,0 C29.8655273,0 25.703125,4.15159091 25.703125,9.27272727 C25.708457,14.3916818 29.8677148,18.5401364 35,18.5454545 Z M35,2.18181818 C38.9264258,2.18181818 42.109375,5.3565 42.109375,9.27272727 C42.109375,13.1889545 38.9264258,16.3636364 35,16.3636364 C31.0735742,16.3636364 27.890625,13.1889545 27.890625,9.27272727 C27.8951367,5.35840909 31.0754883,2.18631818 35,2.18181818 Z" id="Shape"></path>
                                <path d="M13.9453125,18.5454545 C19.0797852,18.5454545 23.2421875,14.3938636 23.2421875,9.27272727 C23.2421875,4.15159091 19.0797852,0 13.9453125,0 C8.81083984,0 4.6484375,4.15159091 4.6484375,9.27272727 C4.65376953,14.3916818 8.81302734,18.5401364 13.9453125,18.5454545 Z M13.9453125,2.18181818 C17.8717383,2.18181818 21.0546875,5.3565 21.0546875,9.27272727 C21.0546875,13.1889545 17.8717383,16.3636364 13.9453125,16.3636364 C10.0188867,16.3636364 6.8359375,13.1889545 6.8359375,9.27272727 C6.84044922,5.35840909 10.0208008,2.18631818 13.9453125,2.18181818 Z" id="Shape"></path>
                                <path d="M56.0546875,18.5454545 C61.1891602,18.5454545 65.3515625,14.3938636 65.3515625,9.27272727 C65.3515625,4.15159091 61.1891602,0 56.0546875,0 C50.9202148,0 46.7578125,4.15159091 46.7578125,9.27272727 C46.7631445,14.3916818 50.9224023,18.5401364 56.0546875,18.5454545 Z M56.0546875,2.18181818 C59.9811133,2.18181818 63.1640625,5.3565 63.1640625,9.27272727 C63.1640625,13.1889545 59.9811133,16.3636364 56.0546875,16.3636364 C52.1282617,16.3636364 48.9453125,13.1889545 48.9453125,9.27272727 C48.9498242,5.35840909 52.1301758,2.18631818 56.0546875,2.18181818 Z" id="Shape"></path>
                                <path d="M60.703125,20.3181818 L51.40625,20.3181818 C49.2626367,20.3112273 47.1836914,21.0500455 45.5273438,22.4072727 C43.8709961,21.0500455 41.7920508,20.3112273 39.6484375,20.3181818 L30.3515625,20.3181818 C28.2079492,20.3112273 26.1290039,21.0500455 24.4726563,22.4072727 C22.8163086,21.0500455 20.7373633,20.3112273 18.59375,20.3181818 L9.296875,20.3181818 C4.16458984,20.3235 0.00533203125,24.4719545 0,29.5909091 L0,36 L70,36 L70,29.5909091 C69.994668,24.4719545 65.8354102,20.3235 60.703125,20.3181818 Z M21.0546875,33.8181818 L2.1875,33.8181818 L2.1875,29.5909091 C2.19201172,25.6765909 5.37236328,22.5045 9.296875,22.5 L18.59375,22.5 C20.1701172,22.4945455 21.7028711,23.0165455 22.946875,23.9822727 C21.7172266,25.5946364 21.0523633,27.5650909 21.0546875,29.5909091 L21.0546875,33.8181818 Z M46.7578125,33.8181818 L23.2421875,33.8181818 L23.2421875,29.5909091 C23.2421875,25.6746818 26.4251367,22.5 30.3515625,22.5 L39.6484375,22.5 C43.5748633,22.5 46.7578125,25.6746818 46.7578125,29.5909091 L46.7578125,33.8181818 Z M67.8125,33.8181818 L48.9453125,33.8181818 L48.9453125,29.5909091 C48.9466797,27.5652273 48.2819531,25.5950455 47.053125,23.9822727 C48.2971289,23.0165455 49.8298828,22.4945455 51.40625,22.5 L60.703125,22.5 C64.6276367,22.5045 67.8079883,25.6765909 67.8125,29.5909091 L67.8125,33.8181818 Z" id="Shape"></path>
                            </g>
                        </g>
                    </g>
                </g>
            </g>
        </g>
    </g>
</svg>