<?xml version="1.0" encoding="UTF-8"?>
<svg width="70px" height="60px" viewBox="0 0 70 60" version="1.1" xmlns="http://www.w3.org/2000/svg" xmlns:xlink="http://www.w3.org/1999/xlink">
    <!-- Generator: Sketch 53.2 (72643) - https://sketchapp.com -->
    <title>ic_events</title>
    <desc>Created with Sketch.</desc>
    <defs>
        <polygon id="path-1" points="0.0102439024 0.102102273 69.9320488 0.102102273 69.9320488 59.9655682 0.0102439024 59.9655682"></polygon>
    </defs>
    <g id="01" stroke="none" stroke-width="1" fill="none" fill-rule="evenodd">
        <g id="01-03-01-Homepage" transform="translate(-224.000000, -3133.000000)">
            <g id="Group-36" transform="translate(0.000000, 2602.000000)">
                <g id="Group-31">
                    <g id="Group-29" transform="translate(201.000000, 120.000000)">
                        <g id="Group-26" transform="translate(0.000000, 406.000000)">
                            <g id="Events" transform="translate(0.000000, 5.000000)">
                                <g id="ic_events" transform="translate(23.000000, 0.000000)">
                                    <g id="Group-4">
                                        <mask id="mask-2" fill="white">
                                            <use xlink:href="#path-1"></use>
                                        </mask>
                                        <g id="Clip-2"></g>
                                        <polygon id="Fill-1" fill="#00CEB8" mask="url(#mask-2)" points="5.18990244 54.7840909 64.7412927 54.7840909 64.7412927 17.6030114 5.18990244 17.6030114"></polygon>
                                        <path d="M56.5762195,3.48119318 L56.5762195,0.102102273 L54.3906829,0.102102273 L54.3906829,3.48119318 L36.0583659,3.48119318 L36.0583659,0.102102273 L33.8728293,0.102102273 L33.8728293,3.48119318 L15.5405122,3.48119318 L15.5405122,0.102102273 L13.3551463,0.102102273 L13.3551463,3.48119318 L0,3.48119318 L0,59.9655682 L69.9320488,59.9655682 L69.9320488,3.48119318 L56.5762195,3.48119318 Z M2.18553659,57.7844318 L67.7465122,57.7844318 L67.7465122,14.6033523 L2.18553659,14.6033523 L2.18553659,57.7844318 Z M2.18553659,5.66318182 L13.3551463,5.66318182 L13.3551463,9.04227273 L15.5405122,9.04227273 L15.5405122,5.66318182 L33.8728293,5.66318182 L33.8728293,9.04227273 L36.0583659,9.04227273 L36.0583659,5.66318182 L54.3906829,5.66318182 L54.3906829,9.04227273 L56.5762195,9.04227273 L56.5762195,5.66318182 L67.7465122,5.66318182 L67.7465122,12.3448295 L2.18553659,12.3448295 L2.18553659,5.66318182 Z" id="Fill-3" fill="#48626F" mask="url(#mask-2)"></path>
                                    </g>
                                    <polygon id="Fill-5" fill="#48626F" points="30.4882439 30.800625 39.4429512 30.800625 39.4429512 28.6186364 30.4882439 28.6186364"></polygon>
                                    <polygon id="Fill-6" fill="#48626F" points="48.2750732 30.800625 57.2290976 30.800625 57.2290976 28.6186364 48.2750732 28.6186364"></polygon>
                                    <polygon id="Fill-7" fill="#48626F" points="12.7020976 30.800625 21.6568049 30.800625 21.6568049 28.6186364 12.7020976 28.6186364"></polygon>
                                    <polygon id="Fill-8" fill="#48626F" points="30.4882439 43.7698295 39.4429512 43.7698295 39.4429512 41.5885227 30.4882439 41.5885227"></polygon>
                                    <polygon id="Fill-9" fill="#48626F" points="48.2750732 43.7698295 57.2290976 43.7698295 57.2290976 41.5885227 48.2750732 41.5885227"></polygon>
                                    <polygon id="Fill-10" fill="#48626F" points="12.7020976 43.7698295 21.6568049 43.7698295 21.6568049 41.5885227 12.7020976 41.5885227"></polygon>
                                </g>
                            </g>
                        </g>
                    </g>
                </g>
            </g>
        </g>
    </g>
</svg>