<?xml version="1.0" encoding="UTF-8"?>
<svg width="70px" height="70px" viewBox="0 0 70 70" version="1.1" xmlns="http://www.w3.org/2000/svg" xmlns:xlink="http://www.w3.org/1999/xlink">
    <!-- Generator: Sketch 53.2 (72643) - https://sketchapp.com -->
    <title>ic_team</title>
    <desc>Created with Sketch.</desc>
    <g id="01---Desktop" stroke="none" stroke-width="1" fill="none" fill-rule="evenodd">
        <g id="01-02-03-About" transform="translate(-379.000000, -1294.000000)" fill-rule="nonzero">
            <g id="We-are-on-a-mission" transform="translate(0.000000, 486.000000)">
                <g id="Group-10" transform="translate(352.000000, 808.000000)">
                    <g id="Team-members">
                        <g id="ic_team" transform="translate(27.000000, 0.000000)">
                            <g id="Group" transform="translate(5.878906, 57.173489)" fill="#00CEB8">
                                <path d="M36.7139063,7.5054191 C38.9790625,1.59321637 45.6174414,-1.36711501 51.5411914,0.893489279 C54.5908398,2.05729045 56.9999609,4.4617154 58.1660352,7.5054191 L36.7139063,7.5054191 Z" id="Path"></path>
                                <path d="M0.0762890625,7.5054191 C2.34144531,1.59321637 8.97982422,-1.36711501 14.9035742,0.893489279 C17.9532227,2.05729045 20.3623438,4.4617154 21.528418,7.5054191 L0.0762890625,7.5054191 Z" id="Path"></path>
                            </g>
                            <g id="Group" fill="#48626F">
                                <path d="M58.1910547,52.8521832 C62.2949414,50.1662573 63.4400977,44.66846 60.7487891,40.5724366 C58.0576172,36.4765497 52.549082,35.3336257 48.4450586,38.0196881 C44.3410352,40.705614 43.1960156,46.2034113 45.8873242,50.2994347 C46.5556055,51.3162768 47.4260937,52.1853411 48.4450586,52.8521832 C41.8188477,54.8756335 36.6403516,60.7111501 36.6403516,69.8636842 L69.9969922,69.8636842 C69.9971289,60.82577 64.9252734,54.9082456 58.1910547,52.8521832 Z M46.6201367,45.4406433 C46.6201367,41.7482456 49.6191992,38.7550292 53.3188086,38.7550292 C57.018418,38.7550292 60.0174805,41.7482456 60.0174805,45.4406433 C60.0174805,49.1330409 57.018418,52.1262573 53.3188086,52.1262573 C49.6211133,52.1217544 46.6246484,49.1311306 46.6201367,45.4406433 Z M38.8688672,67.6805848 C39.4705664,59.715731 46.4277734,53.7455361 54.4083203,54.3460624 C61.5521484,54.8836842 67.2302148,60.5505458 67.7688867,67.6805848 L38.8688672,67.6805848 Z" id="Shape"></path>
                                <path d="M21.5534375,52.8521832 C25.6573242,50.1662573 26.8024805,44.66846 24.1111719,40.5724366 C21.42,36.4765497 15.9114648,35.3336257 11.8074414,38.0196881 C7.70341797,40.7057505 6.55839844,46.2034113 9.24970703,50.2994347 C9.91798828,51.3162768 10.7884766,52.1853411 11.8074414,52.8521832 C5.18136719,54.8754971 0.00287109375,60.7111501 0.00287109375,69.8635478 L33.3595117,69.8635478 C33.3595117,60.82577 28.2876562,54.9082456 21.5534375,52.8521832 Z M9.98251953,45.4406433 C9.98251953,41.7482456 12.981582,38.7550292 16.6811914,38.7550292 C20.3808008,38.7550292 23.3798633,41.7482456 23.3798633,45.4406433 C23.3798633,49.1330409 20.3808008,52.1262573 16.6811914,52.1262573 C12.9834961,52.1217544 9.98703125,49.1311306 9.98251953,45.4406433 Z M2.23125,67.6805848 C2.83294922,59.715731 9.79015625,53.7455361 17.7707031,54.3460624 C24.9145312,54.8836842 30.5925977,60.5505458 31.1312695,67.6805848 L2.23125,67.6805848 Z" id="Shape"></path>
                                <path d="M39.8722461,16.2859844 C43.9761328,13.6000585 45.1212891,8.10226121 42.4299805,4.00623782 C39.7388086,-0.0896491228 34.2302734,-1.2325731 30.12625,1.45348928 C26.0222266,4.13955166 24.877207,9.63721248 27.5685156,13.7332359 C28.2367969,14.750078 29.1072852,15.6191423 30.12625,16.2859844 C23.5000391,18.3094347 18.321543,24.1449513 18.321543,33.2974854 L51.6781836,33.2974854 C51.6783203,24.2595712 46.6064648,18.3420468 39.8722461,16.2859844 Z M28.3013281,8.87444444 C28.3013281,5.18204678 31.3003906,2.18883041 35,2.18883041 C38.6996094,2.18883041 41.6986719,5.18204678 41.6986719,8.87444444 C41.6986719,12.5668421 38.6996094,15.5600585 35,15.5600585 C31.3023047,15.5555556 28.3058398,12.5649318 28.3013281,8.87444444 Z M20.5500586,31.114386 C21.1517578,23.1495322 28.1089648,17.1793372 36.0895117,17.7798635 C43.2333398,18.3174854 48.9114062,23.984347 49.4500781,31.114386 L20.5500586,31.114386 Z" id="Shape"></path>
                            </g>
                            <path d="M24.2740039,28.1127096 C26.5391602,22.2005068 33.1775391,19.2401754 39.1012891,21.5007797 C42.1509375,22.6645809 44.5600586,25.0690058 45.7261328,28.1127096 L24.2740039,28.1127096 L24.2740039,28.1127096 Z" id="Path" fill="#00CEB8"></path>
                        </g>
                    </g>
                </g>
            </g>
        </g>
    </g>
</svg>