<?xml version="1.0" encoding="UTF-8" standalone="no"?>
<svg width="183px" height="46px" viewBox="0 0 183 46" version="1.1" xmlns="http://www.w3.org/2000/svg" xmlns:xlink="http://www.w3.org/1999/xlink" xmlns:sketch="http://www.bohemiancoding.com/sketch/ns">
    <!-- Generator: Sketch 3.4.4 (17249) - http://www.bohemiancoding.com/sketch -->
    <title>b2match_horizontal_white</title>
    <desc>Created with Sketch.</desc>
    <defs>
        <path id="path-1" d="M0.01304038,0.0159146919 L182.976093,0.0159146919 L182.976093,45.9869194 L0.01304038,45.9869194"></path>
        <path id="path-3" d="M0.01304038,0.0159146919 L182.973047,0.0159146919 L182.973047,45.9869194 L0.01304038,45.9869194"></path>
    </defs>
    <g id="Page-1" stroke="none" stroke-width="1" fill="none" fill-rule="evenodd" sketch:type="MSPage">
        <g id="Landing-Page" sketch:type="MSArtboardGroup" transform="translate(-55.000000, -46.000000)">
            <g id="Header-Navigation" sketch:type="MSLayerGroup" transform="translate(55.000000, 46.000000)">
                <g id="b2match_horizontal_white">
                    <path d="M62.1434964,22.1283981 C59.3980618,22.1283981 57.4052743,24.2345877 57.4052743,27.1362938 C57.4052743,29.9725972 59.4421817,32.1117062 62.1434964,32.1117062 C64.8356829,32.1117062 66.8660701,29.9725972 66.8660701,27.1362938 C66.8660701,24.2345877 64.8802375,22.1283981 62.1434964,22.1283981 L62.1434964,22.1283981 Z M62.1434964,35.2039526 C57.3050808,35.2039526 53.9254489,31.8865024 53.9254489,27.1362938 L53.9254489,13.9929384 L57.3415938,13.9929384 L57.3415938,20.2040284 C57.3415938,20.2430521 57.3626758,20.2796777 57.3972328,20.2982085 C57.4133159,20.3075829 57.4313551,20.3119431 57.4493943,20.3119431 C57.4691722,20.3119431 57.4889501,20.3062749 57.5063373,20.2958104 C58.8399335,19.4595261 60.3999976,19.0354976 62.1434964,19.0354976 C66.9725665,19.0354976 70.3454608,22.3666825 70.3454608,27.1356398 C70.3454608,31.8858483 66.9725665,35.2039526 62.1434964,35.2039526 L62.1434964,35.2039526 Z" id="Fill-1" fill="#FFFFFF" sketch:type="MSShapeGroup"></path>
                    <path d="M72.0424489,34.9499716 L71.9965903,32.5427109 L79.135329,25.046673 C81.1628907,22.907346 82.3369596,21.3032322 82.3369596,19.4366351 C82.3369596,17.3550806 80.8510083,15.8447109 78.8030166,15.8447109 C76.9904038,15.8447109 75.5496591,16.721981 74.5199038,18.4527583 L71.9818112,16.651782 C73.0159133,14.765128 75.0793361,12.5608341 79.0729525,12.5608341 C82.4786651,12.5608341 85.9269762,14.7858389 85.9269762,19.0387678 C85.9269762,21.6727583 84.8996116,23.7702275 82.2619774,26.519763 L77.5207126,31.4668341 C77.5015867,31.487327 77.4911544,31.578019 77.4911544,31.6059242 C77.4911544,31.6654408 77.5394038,31.7138389 77.5987375,31.7138389 L86.1806116,31.7138389 L86.1806116,34.9499716 L72.0424489,34.9499716" id="Fill-2" fill="#FFFFFF" sketch:type="MSShapeGroup"></path>
                    <path d="M111.375713,34.9654502 L111.375713,26.7855166 C111.375713,23.6945782 110.294013,22.1277441 108.160172,22.1277441 C105.885061,22.1277441 104.357163,24.1404076 104.357163,27.1356398 L104.357163,34.9654502 L100.941018,34.9654502 L100.941018,26.7855166 C100.941018,23.7379621 99.8121556,22.1277441 97.6770107,22.1277441 C95.3362625,22.1277441 93.76381,24.1404076 93.76381,27.1356398 L93.76381,34.9493175 L90.3476651,34.9493175 L90.3476651,19.274 L93.76381,19.274 L93.76381,21.3610047 C93.76381,21.4207393 93.8120594,21.4691374 93.8713931,21.4691374 C93.9035594,21.4691374 93.9822363,21.4547488 94.0026663,21.4294597 C95.2460665,19.9084076 97.0191235,19.0354976 98.8665107,19.0354976 C101.024476,19.0354976 102.58215,19.9047014 103.496932,21.619346 C103.516058,21.6546635 103.616252,21.6764645 103.656025,21.6764645 C105.040261,19.9587678 107.026311,19.0354976 109.333589,19.0354976 L109.334676,19.0354976 C111.076871,19.0354976 112.424811,19.5912038 113.342637,20.6869194 C114.304365,21.8360474 114.792075,23.5772891 114.792075,25.8629005 L114.792075,34.9654502 L111.375713,34.9654502" id="Fill-3" fill="#FFFFFF" sketch:type="MSShapeGroup"></path>
                    <path d="M144.449159,35.2039526 C141.665473,35.2039526 140.131924,33.3670047 140.131924,30.0310237 L140.131924,22.2681422 C140.131924,22.2084076 140.083675,22.1600095 140.024124,22.1600095 L137.361713,22.1600095 L137.361713,19.274 L140.024124,19.274 C140.083675,19.274 140.131924,19.2256019 140.131924,19.1658673 L140.131924,13.9818199 L143.548069,13.6081517 L143.548069,19.1658673 C143.548069,19.2256019 143.596318,19.274 143.655869,19.274 L148.210657,19.274 L148.210657,22.1600095 L143.655869,22.1600095 C143.596318,22.1600095 143.548069,22.2084076 143.548069,22.2681422 L143.548069,29.6970332 C143.548069,31.3011469 144.050558,32.016218 145.178116,32.016218 C145.813835,32.016218 146.67776,31.7740095 147.459966,31.3798483 L148.348015,34.3199242 C147.456271,34.7903886 146.464333,35.2039526 144.449159,35.2039526" id="Fill-4" fill="#FFFFFF" sketch:type="MSShapeGroup"></path>
                    <path d="M157.977249,35.2039526 C153.288581,35.2039526 150.013489,31.8858483 150.013489,27.1356398 C150.013489,22.3666825 153.340525,19.0354976 158.10461,19.0354976 C160.663785,19.0354976 163.146673,20.1207488 164.614586,21.873763 L162.301874,23.8820664 C161.301242,22.7503791 159.882666,22.1283981 158.294565,22.1283981 C155.422422,22.1283981 153.49288,24.127981 153.49288,27.1040284 C153.49288,30.0992607 155.428724,32.1112701 158.310866,32.1112701 C159.874625,32.1112701 161.333409,31.5021517 162.330346,30.4369573 L164.675875,32.521564 C163.154715,34.2032891 160.660742,35.2039526 157.977249,35.2039526" id="Fill-5" fill="#FFFFFF" sketch:type="MSShapeGroup"></path>
                    <path d="M179.559948,34.9650142 L179.559948,26.4831374 C179.559948,23.4711185 178.465208,22.1277441 176.010574,22.1277441 C173.231234,22.1277441 171.637048,23.8951469 171.637048,26.9767109 L171.637048,34.9493175 L168.220903,34.9493175 L168.220903,13.9929384 L171.637048,13.9929384 L171.637048,21.1543318 C171.637048,21.2138483 171.685297,21.2624645 171.744631,21.2624645 C171.775058,21.2624645 171.86721,21.2493839 171.88764,21.2269289 C173.160816,19.8140095 175.035805,19.0354976 177.168559,19.0354976 L177.170515,19.0354976 C178.972479,19.0354976 180.381057,19.5397536 181.357781,20.5340948 C182.431439,21.6274123 182.976093,23.3134976 182.976093,25.5446066 L182.976093,34.9650142 L179.559948,34.9650142" id="Fill-6" fill="#FFFFFF" sketch:type="MSShapeGroup"></path>
                    <path d="M126.733803,22.1290521 C123.988586,22.1290521 121.995798,24.2345877 121.995798,27.1362938 C121.995798,29.9725972 124.032488,32.1117062 126.733803,32.1117062 C129.425989,32.1117062 131.456376,29.9725972 131.456376,27.1362938 C131.456376,24.2345877 129.470544,22.1290521 126.733803,22.1290521 L126.733803,22.1290521 Z M126.733803,35.2046066 C121.895387,35.2046066 118.515755,31.8865024 118.515755,27.1362938 C118.515755,22.3673365 121.895387,19.0361517 126.733803,19.0361517 C131.555483,19.0361517 134.927726,22.3605782 134.935115,27.1201611 L134.872739,29.6944171 C134.872739,31.3011469 135.375228,32.016218 136.502786,32.016218 C136.67731,32.016218 136.888999,31.992019 137.146329,31.9416588 L137.146329,35.1250332 C136.715779,35.1777915 136.265669,35.2039526 135.773177,35.2039526 C134.178338,35.2039526 132.999271,34.6129289 132.26901,33.4476682 C132.252926,33.4217251 132.226411,33.4036303 132.195983,33.3986161 C132.189898,33.3981801 132.184247,33.3975261 132.178162,33.3975261 C132.154037,33.3975261 132.129912,33.4055924 132.110569,33.4210711 C130.667433,34.5874218 128.80831,35.2039526 126.733803,35.2039526 L126.733803,35.2046066 L126.733803,35.2046066 Z" id="Fill-7" fill="#FFFFFF" sketch:type="MSShapeGroup"></path>
                    <g id="Group-12">
                        <mask id="mask-2" sketch:name="Clip 9" fill="white">
                            <use xlink:href="#path-1"></use>
                        </mask>
                        <g id="Clip-9"></g>
                        <path id="Fill-8" fill="#987AA8" sketch:type="MSShapeGroup" mask="url(#mask-2)" d="M18.3269501,24.678673 L18.3267328,24.678455 L18.3267328,24.678673 L18.3269501,24.678673"></path>
                        <path d="M6.10898337,17.7642844 L6.10898337,10.7380569 L0,7.16270142 L0,35.2767678 L6.10898337,38.8503791 L6.10898337,17.7642844" id="Fill-10" fill="#42B6A2" sketch:type="MSShapeGroup" mask="url(#mask-2)"></path>
                        <path d="M18.3267328,3.58974408 L12.2177494,0.0159146919 L0,7.16836967 L6.10898337,10.7437251 L18.3267328,3.58974408" id="Fill-11" fill="#78C5BB" sketch:type="MSShapeGroup" mask="url(#mask-2)"></path>
                    </g>
                    <path d="M6.10898337,17.7697346 L12.2177494,14.1935071 L18.3267328,17.6445972 L18.3267328,3.58952607 L6.10898337,10.7435071 L6.10898337,17.7697346" id="Fill-13" fill="#159C97" sketch:type="MSShapeGroup"></path>
                    <g id="b2match_logo_color">
                        <mask id="mask-4" sketch:name="Clip 15" fill="white">
                            <use xlink:href="#path-3"></use>
                        </mask>
                        <g id="Clip-15"></g>
                        <path id="Fill-14" fill="#338C8B" sketch:type="MSShapeGroup" mask="url(#mask-4)"></path>
                        <path d="M12.2177494,35.4025592 L12.2177494,21.2225687 L6.10898337,17.7651564 L6.10898337,38.8510332 L18.3267328,46 L18.3267328,38.9763886 L12.2177494,35.4025592" id="Fill-16" fill="#F0A949" sketch:type="MSShapeGroup" mask="url(#mask-4)"></path>
                        <path d="M24.4357162,35.4012512 L18.3267328,38.9763886 L18.3267328,46 L24.4357162,42.4261706 L24.4357162,42.4242085 L36.6536829,35.2743697 L36.6536829,28.2507583 L24.4357162,35.4012512" id="Fill-17" fill="#EC9141" sketch:type="MSShapeGroup" mask="url(#mask-4)"></path>
                    </g>
                    <path d="M12.2177494,14.1939431 L6.10898337,17.7701706 L12.2177494,21.2225687 L18.3267328,17.6445972 L12.2177494,14.1939431" id="Fill-19" fill="#FACF40" sketch:type="MSShapeGroup"></path>
                    <path d="M18.3267328,24.7983602 L18.3267328,17.6445972 L12.2177494,21.2225687 L12.2177494,28.3745877 L18.3267328,24.7983602" id="Fill-20" fill="#EC9141" sketch:type="MSShapeGroup"></path>
                    <path d="M18.3267328,24.79509 L18.3269501,24.7953081 L24.4350641,21.2197346 L18.3267328,17.6445972 L18.3267328,24.79509" id="Fill-21" fill="#2264A1" sketch:type="MSShapeGroup"></path>
                    <path d="M18.3267328,31.9481991 L18.3267328,38.9763886 L36.6534656,28.2507583 L36.6534656,21.2186445 L18.3267328,31.9481991" id="Fill-22" fill="#2264A1" sketch:type="MSShapeGroup"></path>
                    <path d="M12.2177494,28.3745877 L12.2177494,35.4043033 L18.3267328,38.9781327 L18.3267328,31.9501611 L12.2177494,28.3745877" id="Fill-23" fill="#1C8EBA" sketch:type="MSShapeGroup"></path>
                    <path d="M24.4350641,21.2227867 L18.3269501,24.7983602 L18.3267328,24.7985782 L12.2177494,28.3745877 L18.3267328,31.9499431 L36.6534656,21.2203886 L24.4357162,14.0716398 L18.3267328,17.6445972 L24.4350641,21.2227867" id="Fill-24" fill="#379BCA" sketch:type="MSShapeGroup"></path>
                </g>
            </g>
        </g>
    </g>
</svg>