<?xml version="1.0" encoding="UTF-8"?>
<svg width="136px" height="36px" viewBox="0 0 136 36" version="1.1" xmlns="http://www.w3.org/2000/svg" xmlns:xlink="http://www.w3.org/1999/xlink">
    <!-- Generator: Sketch 53.2 (72643) - https://sketchapp.com -->
    <title>b2match_logo</title>
    <desc>Created with Sketch.</desc>
    <defs>
        <polygon id="path-1" points="0.238041789 0.0806646035 11.1943552 0.0806646035 11.1943552 16.1180263 0.238041789 16.1180263"></polygon>
        <polygon id="path-3" points="0.512387046 0.436741973 5.04848707 0.436741973 5.04848707 8.54158607 0.512387046 8.54158607"></polygon>
    </defs>
    <g id="01---Desktop" stroke="none" stroke-width="1" fill="none" fill-rule="evenodd">
        <g id="01-02-03-About" transform="translate(-50.000000, -38.000000)">
            <g id="b2match_logo" transform="translate(50.000000, 38.000000)">
                <path d="M46.4308473,26.9438762 C42.8382184,26.9438762 40.3284072,24.4070251 40.3284072,20.7741818 L40.3284072,10.7234043 L42.8649352,10.7234043 L42.8649352,15.47306 C42.8649352,15.5029555 42.880651,15.5312495 42.9063201,15.5451296 C42.9183689,15.5526035 42.9319892,15.5558066 42.9450857,15.5558066 C42.9597538,15.5558066 42.9744219,15.5515358 42.9875184,15.543528 C43.9776129,14.9039768 45.1363903,14.5799304 46.4308473,14.5799304 C50.0166661,14.5799304 52.5212387,17.1269246 52.5212387,20.773648 C52.5212387,24.4064913 50.0166661,26.9438762 46.4308473,26.9438762 M46.4308473,16.944882 C44.3919859,16.944882 42.9126064,18.5555048 42.9126064,20.7741818 C42.9126064,22.9432108 44.424989,24.5794584 46.4308473,24.5794584 C48.4298954,24.5794584 49.9375633,22.9432108 49.9375633,20.7741818 C49.9375633,18.5555048 48.4628986,16.944882 46.4308473,16.944882" id="Fill-1" fill="#FFFFFF"></path>
                <path d="M53.4969061,26.7176542 L53.4628552,24.8764085 L58.7637902,19.1444704 C60.2693626,17.5087567 61.1410649,16.2819714 61.1410649,14.8544588 C61.1410649,13.2625207 60.0378167,12.107805 58.5170523,12.107805 C57.1712571,12.107805 56.101012,12.7783195 55.3367009,14.1017315 L53.4518541,12.7249346 C54.2198323,11.2819404 55.7521215,9.59604487 58.7176905,9.59604487 C61.2463607,9.59604487 63.8069863,11.2979559 63.8069863,14.5501648 C63.8069863,16.5643776 63.0442467,18.1685942 61.0855358,20.2708921 L57.5651995,24.053747 C57.5505314,24.0697625 57.5426735,24.1391629 57.5426735,24.1605168 C57.5426735,24.205894 57.5788198,24.2427296 57.622824,24.2427296 L63.9955757,24.2427296 L63.9955757,26.7176542 L53.4969061,26.7176542 Z" id="Fill-3" fill="#FFFFFF"></path>
                <path d="M82.704644,26.7296658 L82.704644,20.4740217 C82.704644,18.1106716 81.9015673,16.9121803 80.3168921,16.9121803 C78.627445,16.9121803 77.4927652,18.4512673 77.4927652,20.7420139 L77.4927652,26.7296658 L74.9557133,26.7296658 L74.9557133,20.4740217 C74.9557133,18.1437702 74.117538,16.9121803 72.5323389,16.9121803 C70.7941728,16.9121803 69.6264899,18.4512673 69.6264899,20.7420139 L69.6264899,26.7173872 L67.089438,26.7173872 L67.089438,14.729805 L69.6264899,14.729805 L69.6264899,16.3260139 C69.6264899,16.371925 69.6621123,16.4087605 69.7066404,16.4087605 C69.730214,16.4087605 69.7888863,16.3975497 69.8040782,16.3783311 C70.7271188,15.2150739 72.0435779,14.5477625 73.4155661,14.5477625 C75.0180526,14.5477625 76.1747345,15.2124046 76.8541803,16.5235381 C76.8683246,16.5507644 76.9427126,16.5673137 76.9720488,16.5673137 C77.9998612,15.253511 79.4750498,14.5477625 81.1880706,14.5477625 L81.1891183,14.5477625 C82.4825276,14.5477625 83.4836232,14.9727064 84.1651645,15.8103157 C84.8791851,16.6890313 85.2411721,18.0209849 85.2411721,19.768807 L85.2411721,26.7296658 L82.704644,26.7296658 Z" id="Fill-5" fill="#FFFFFF"></path>
                <path d="M107.264124,26.9118685 C105.196974,26.9118685 104.058103,25.5073114 104.058103,22.9560464 L104.058103,17.0196441 C104.058103,16.9737331 104.022481,16.9368975 103.978476,16.9368975 L102.00143,16.9368975 L102.00143,14.7299652 L103.978476,14.7299652 C104.022481,14.7299652 104.058103,14.6931296 104.058103,14.6472186 L104.058103,10.6828549 L106.595155,10.3972456 L106.595155,14.6472186 C106.595155,14.6931296 106.630777,14.7299652 106.674782,14.7299652 L110.057343,14.7299652 L110.057343,16.9368975 L106.674782,16.9368975 C106.630777,16.9368975 106.595155,16.9737331 106.595155,17.0196441 L106.595155,22.7003327 C106.595155,23.927118 106.968143,24.4743133 107.805271,24.4743133 C108.277268,24.4743133 108.918996,24.2890677 109.499956,23.9874429 L110.159496,26.2360155 C109.497337,26.5958298 108.760267,26.9118685 107.264124,26.9118685" id="Fill-7" fill="#FFFFFF"></path>
                <path d="M117.309812,26.9118685 C113.828241,26.9118685 111.395961,24.3744836 111.395961,20.7416402 C111.395961,17.0949168 113.867007,14.5479226 117.404631,14.5479226 C119.304669,14.5479226 121.148655,15.3775242 122.238807,16.7180193 L120.521071,18.2539033 C119.778238,17.3885338 118.724757,16.9128743 117.545549,16.9128743 C115.412916,16.9128743 113.979637,18.4418182 113.979637,20.717617 C113.979637,23.0083636 115.417107,24.5469168 117.557598,24.5469168 C118.718994,24.5469168 119.801812,24.0808665 120.542549,23.2662128 L122.283859,24.8608201 C121.154417,26.1468627 119.302574,26.9118685 117.309812,26.9118685" id="Fill-9" fill="#FFFFFF"></path>
                <g id="Group-13" transform="translate(124.678578, 10.611106)">
                    <mask id="mask-2" fill="white">
                        <use xlink:href="#path-1"></use>
                    </mask>
                    <g id="Clip-12"></g>
                    <path d="M8.65803667,16.1180263 L8.65803667,9.63175938 C8.65803667,7.32873424 7.84500661,6.30107466 6.02249917,6.30107466 C3.95849246,6.30107466 2.77456983,7.65278066 2.77456983,10.0091907 L2.77456983,16.1062816 L0.238041789,16.1062816 L0.238041789,0.0806646035 L2.77456983,0.0806646035 L2.77456983,5.55688897 C2.77456983,5.60226615 2.81071614,5.63963559 2.85472034,5.63963559 C2.87724631,5.63963559 2.94587191,5.62949246 2.96106384,5.61240928 C3.9061065,4.53189865 5.29852524,3.93665687 6.88215272,3.93665687 L6.8837243,3.93665687 C8.22166165,3.93665687 9.26780921,4.32209594 9.99283085,5.08283095 C10.7901451,5.91883868 11.1945647,7.20808433 11.1945647,8.91426615 L11.1945647,16.1180263 L8.65803667,16.1180263 Z" id="Fill-11" fill="#FFFFFF" mask="url(#mask-2)"></path>
                </g>
                <path d="M94.1093288,26.9123489 C90.5166999,26.9123489 88.0068887,24.374964 88.0068887,20.7421207 C88.0068887,17.0953973 90.5166999,14.5484031 94.1093288,14.5484031 C97.689909,14.5484031 100.193958,17.0900588 100.199196,20.7298422 L100.153097,22.6986778 C100.153097,23.9270646 100.526085,24.47426 101.363736,24.47426 C101.493129,24.47426 101.650287,24.4555752 101.841496,24.4171381 L101.841496,26.8514901 C101.521418,26.8920627 101.187719,26.9118151 100.821541,26.9118151 C99.6376189,26.9118151 98.7617257,26.4596449 98.219531,25.5686507 C98.2074822,25.5488983 98.1880994,25.5350182 98.1655735,25.5312812 C98.1608587,25.5307474 98.1566679,25.5302135 98.1519531,25.5302135 C98.1341419,25.5302135 98.1163307,25.5366197 98.1021865,25.5483644 C97.0303698,26.4404263 95.6499998,26.9118151 94.1093288,26.9118151 L94.1093288,26.9123489 Z M94.1093288,16.9133547 C92.0704674,16.9133547 90.5910879,18.5234437 90.5910879,20.7421207 C90.5910879,22.9111497 92.1034705,24.5473973 94.1093288,24.5473973 C96.1083769,24.5473973 97.6160448,22.9111497 97.6160448,20.7421207 C97.6160448,18.5234437 96.1413801,16.9133547 94.1093288,16.9133547 L94.1093288,16.9133547 Z" id="Fill-14" fill="#FFFFFF"></path>
                <g id="Group-5" transform="translate(0.000052, 0.000000)">
                    <path d="M18.1450287,32.4338437 L18.1450287,27.0633215 L27.2177526,21.5951048 L27.2177526,26.9661609 L18.1450287,32.4338437 Z M13.6088239,29.7971629 L18.1449239,27.0633215 L18.1449239,32.4338437 L18.1449239,32.4354453 L13.6088239,35.168219 L13.6088239,29.7971629 Z" id="Combined-Shape" fill="#FF9933"></path>
                    <polygon id="Fill-18" fill="#00CFB8" points="4.53620479 13.5765841 4.53620479 8.20339265 0.000104771914 5.46901741 0.000104771914 26.9687234 4.53620479 29.7014971"></polygon>
                    <polygon id="Fill-20" fill="#66E3D4" points="13.6088239 2.73277369 9.0727239 -2.66453526e-15 -2.06057393e-13 5.46928433 4.53610002 8.20365957"></polygon>
                    <polygon id="Fill-22" fill="#00A6A6" points="4.53620479 13.5765841 9.07230482 10.841675 13.6089287 13.5749826 13.6089287 13.4858298 13.6089287 2.73250677 4.53620479 8.20339265"></polygon>
                    <path d="M4.53620479,29.7014971 L4.53620479,29.7009632 L4.53620479,29.7014971 Z" id="Fill-24" fill="#2E9499"></path>
                    <polygon id="Fill-26" fill="#FFA826" points="9.0723572 27.0640689 9.0723572 27.0597981 9.0723572 27.0592642 9.0723572 26.9669083 9.0723572 21.6882081 9.0723572 21.5910476 9.0723572 16.3107458 4.53625718 13.5763706 4.53625718 29.7012836 13.6084572 35.1678986 13.6084572 29.7968426"></polygon>
                    <g id="Group-30" transform="translate(13.096437, 26.626579)">
                        <mask id="mask-4" fill="white">
                            <use xlink:href="#path-3"></use>
                        </mask>
                        <g id="Clip-29"></g>
                    </g>
                    <polygon id="Fill-31" fill="#FFD133" points="9.0723572 10.8416217 4.53625718 13.5765308 9.0723572 16.310906 13.6084572 13.5749292"></polygon>
                    <polygon id="Fill-33" fill="#FF9933" points="13.6088239 18.9536193 13.6088239 18.9536193 13.6088239 13.5745555 9.0727239 16.3105323 9.0727239 21.590834 9.0727239 21.6879946"></polygon>
                    <polygon id="Fill-35" fill="#0A6EBA" points="13.6088239 18.9536193 13.6088239 18.9536193 18.1444001 16.2197779 13.6088239 13.4854027 13.6088239 13.5745555"></polygon>
                    <polygon id="Fill-37" fill="#0A6EBA" points="13.6088239 24.4227435 13.6088239 29.7937996 13.6088239 29.7970027 18.1449239 27.0631613 27.2176479 21.5954785 27.2176479 21.5885385 27.2176479 16.2174824"></polygon>
                    <polygon id="Fill-39" fill="#0099CC" points="9.0723572 21.6883149 9.0723572 26.9670151 9.0723572 27.059371 9.0723572 27.0599048 9.0723572 27.0641756 13.6084572 29.7969493 13.6084572 29.7937462 13.6084572 24.4226901"></polygon>
                    <polygon id="Fill-41" fill="#1FA6E5" points="18.1445049 16.219511 13.6089287 18.9538863 9.07230482 21.6882615 13.6089287 24.4226368 27.2177526 16.2173756 18.1450287 10.7507605 13.6089287 13.4856696"></polygon>
                </g>
            </g>
        </g>
    </g>
</svg>